<svg id="Capa_1" enable-background="new 0 0 512 512" height="512" viewBox="0 0 512 512" width="512" xmlns="http://www.w3.org/2000/svg"><g><path d="m205 100c-57.897 0-105 47.103-105 105s47.103 105 105 105 105-47.103 105-105-47.103-105-105-105zm0 180c-41.355 0-75-33.645-75-75s33.645-75 75-75 75 33.645 75 75-33.645 75-75 75z"/><path d="m205 160c-24.813 0-45 20.187-45 45s20.187 45 45 45 45-20.187 45-45-20.187-45-45-45zm0 60c-8.271 0-15-6.729-15-15s6.729-15 15-15 15 6.729 15 15-6.729 15-15 15z"/><path d="m506.231 235.177c-3.641-2.843-8.389-3.85-12.869-2.729l-89.472 22.368c4.054-16.201 6.11-32.867 6.11-49.816 0-113.037-91.963-205-205-205-113.038 0-205 91.963-205 205s91.962 205 205 205c42.332 0 82.873-12.849 117-36.65v51.23c-4.695-1.665-9.742-2.58-15-2.58-24.813 0-45 20.187-45 45s20.187 45 45 45 45-20.187 45-45v-108.289l130-32.5v78.369c-4.695-1.665-9.741-2.58-15-2.58-24.813 0-45 20.187-45 45s20.187 45 45 45 45-20.187 45-45v-200c0-4.619-2.128-8.98-5.769-11.823zm-301.231 144.823c-96.495 0-175-78.505-175-175s78.505-175 175-175 175 78.505 175 175c0 20.036-3.35 39.602-9.952 58.277l-36.685 9.171c-6.678 1.669-11.363 7.669-11.363 14.552v48.111c-32.187 28.988-73.486 44.889-117 44.889zm102 102c-8.271 0-15-6.729-15-15s6.729-15 15-15 15 6.729 15 15-6.729 15-15 15zm45-154.211v-29.077l130-32.5v29.077zm115 134.211c-8.271 0-15-6.729-15-15s6.729-15 15-15 15 6.729 15 15-6.729 15-15 15z"/></g></svg>